<?xml version="1.0" encoding="UTF-8" standalone="no"?>
<svg width="258.586mm" height="155.575mm"
 viewBox="0 0 733 441"
 xmlns="http://www.w3.org/2000/svg" xmlns:xlink="http://www.w3.org/1999/xlink"  version="1.2" baseProfile="tiny">
<title>Qt SVG Document</title>
<desc>MATLAB, The MathWorks, Inc. Version 25.1.0.2973910 R2025a Update 1</desc>
<defs>
</defs>
<g fill="none" stroke="black" stroke-width="1" fill-rule="evenodd" stroke-linecap="square" stroke-linejoin="bevel" >

<g fill="#ffffff" fill-opacity="1" stroke="none" transform="matrix(0.5,0,0,0.5,0,0)"
font-family=".AppleSystemUIFont" font-size="13" font-weight="400" font-style="normal" 
>
<path vector-effect="none" fill-rule="evenodd" d="M0,0 L1467,0 L1467,883 L0,883 L0,0"/>
</g>

<g fill="#ffffff" fill-opacity="1" stroke="none" transform="matrix(5e-05,0,0,5e-05,0,0)"
font-family=".AppleSystemUIFont" font-size="13" font-weight="400" font-style="normal" 
>
<path vector-effect="none" fill-rule="evenodd" d="M1.07e+06,1.03e+06 L1.07e+06,7.91e+06 L1.292e+07,7.91e+06 L1.292e+07,1.03e+06 L1.07e+06,1.03e+06"/>
</g>

<g fill="#212121" fill-opacity="1" stroke="#212121" stroke-opacity="1" stroke-width="1" stroke-linecap="square" stroke-linejoin="bevel" transform="matrix(0.5,0,0,0.5,330,419.5)"
font-family="Helvetica" font-size="20" font-weight="400" font-style="normal" 
>
<text fill="#212121" fill-opacity="1" stroke="none" xml:space="preserve" x="0" y="0.390625" font-family="Helvetica" font-size="20" font-weight="400" font-style="normal" 
 >X Values</text>
</g>

<g fill="#212121" fill-opacity="1" stroke="#212121" stroke-opacity="1" stroke-width="1" stroke-linecap="square" stroke-linejoin="round" transform="matrix(0.5,0,0,0.5,0,0)"
font-family="Helvetica" font-size="20" font-weight="400" font-style="normal" 
>
<polyline fill="none" vector-effect="none" points="107,791 1292,791 " />
<polyline fill="none" vector-effect="none" points="172.432,791 172.432,779.15 " />
<polyline fill="none" vector-effect="none" points="278.737,791 278.737,779.15 " />
<polyline fill="none" vector-effect="none" points="385.042,791 385.042,779.15 " />
<polyline fill="none" vector-effect="none" points="491.347,791 491.347,779.15 " />
<polyline fill="none" vector-effect="none" points="597.652,791 597.652,779.15 " />
<polyline fill="none" vector-effect="none" points="703.957,791 703.957,779.15 " />
<polyline fill="none" vector-effect="none" points="810.262,791 810.262,779.15 " />
<polyline fill="none" vector-effect="none" points="916.567,791 916.567,779.15 " />
<polyline fill="none" vector-effect="none" points="1022.87,791 1022.87,779.15 " />
<polyline fill="none" vector-effect="none" points="1129.18,791 1129.18,779.15 " />
<polyline fill="none" vector-effect="none" points="1235.48,791 1235.48,779.15 " />
</g>

<g fill="#212121" fill-opacity="1" stroke="#212121" stroke-opacity="1" stroke-width="1" stroke-linecap="square" stroke-linejoin="bevel" transform="matrix(0.5,0,0,0.5,81.716,407)"
font-family="Helvetica" font-size="20" font-weight="400" font-style="normal" 
>
<text fill="#212121" fill-opacity="1" stroke="none" xml:space="preserve" x="0" y="0.390625" font-family="Helvetica" font-size="20" font-weight="400" font-style="normal" 
 >-2</text>
</g>

<g fill="#212121" fill-opacity="1" stroke="#212121" stroke-opacity="1" stroke-width="1" stroke-linecap="square" stroke-linejoin="bevel" transform="matrix(0.5,0,0,0.5,130.868,407)"
font-family="Helvetica" font-size="20" font-weight="400" font-style="normal" 
>
<text fill="#212121" fill-opacity="1" stroke="none" xml:space="preserve" x="0" y="0.390625" font-family="Helvetica" font-size="20" font-weight="400" font-style="normal" 
 >-1.5</text>
</g>

<g fill="#212121" fill-opacity="1" stroke="#212121" stroke-opacity="1" stroke-width="1" stroke-linecap="square" stroke-linejoin="bevel" transform="matrix(0.5,0,0,0.5,188.021,407)"
font-family="Helvetica" font-size="20" font-weight="400" font-style="normal" 
>
<text fill="#212121" fill-opacity="1" stroke="none" xml:space="preserve" x="0" y="0.390625" font-family="Helvetica" font-size="20" font-weight="400" font-style="normal" 
 >-1</text>
</g>

<g fill="#212121" fill-opacity="1" stroke="#212121" stroke-opacity="1" stroke-width="1" stroke-linecap="square" stroke-linejoin="bevel" transform="matrix(0.5,0,0,0.5,237.173,407)"
font-family="Helvetica" font-size="20" font-weight="400" font-style="normal" 
>
<text fill="#212121" fill-opacity="1" stroke="none" xml:space="preserve" x="0" y="0.390625" font-family="Helvetica" font-size="20" font-weight="400" font-style="normal" 
 >-0.5</text>
</g>

<g fill="#212121" fill-opacity="1" stroke="#212121" stroke-opacity="1" stroke-width="1" stroke-linecap="square" stroke-linejoin="bevel" transform="matrix(0.5,0,0,0.5,296.076,407)"
font-family="Helvetica" font-size="20" font-weight="400" font-style="normal" 
>
<text fill="#212121" fill-opacity="1" stroke="none" xml:space="preserve" x="0" y="0.390625" font-family="Helvetica" font-size="20" font-weight="400" font-style="normal" 
 >0</text>
</g>

<g fill="#212121" fill-opacity="1" stroke="#212121" stroke-opacity="1" stroke-width="1" stroke-linecap="square" stroke-linejoin="bevel" transform="matrix(0.5,0,0,0.5,344.978,407)"
font-family="Helvetica" font-size="20" font-weight="400" font-style="normal" 
>
<text fill="#212121" fill-opacity="1" stroke="none" xml:space="preserve" x="0" y="0.390625" font-family="Helvetica" font-size="20" font-weight="400" font-style="normal" 
 >0.5</text>
</g>

<g fill="#212121" fill-opacity="1" stroke="#212121" stroke-opacity="1" stroke-width="1" stroke-linecap="square" stroke-linejoin="bevel" transform="matrix(0.5,0,0,0.5,402.381,407)"
font-family="Helvetica" font-size="20" font-weight="400" font-style="normal" 
>
<text fill="#212121" fill-opacity="1" stroke="none" xml:space="preserve" x="0" y="0.390625" font-family="Helvetica" font-size="20" font-weight="400" font-style="normal" 
 >1</text>
</g>

<g fill="#212121" fill-opacity="1" stroke="#212121" stroke-opacity="1" stroke-width="1" stroke-linecap="square" stroke-linejoin="bevel" transform="matrix(0.5,0,0,0.5,451.283,407)"
font-family="Helvetica" font-size="20" font-weight="400" font-style="normal" 
>
<text fill="#212121" fill-opacity="1" stroke="none" xml:space="preserve" x="0" y="0.390625" font-family="Helvetica" font-size="20" font-weight="400" font-style="normal" 
 >1.5</text>
</g>

<g fill="#212121" fill-opacity="1" stroke="#212121" stroke-opacity="1" stroke-width="1" stroke-linecap="square" stroke-linejoin="bevel" transform="matrix(0.5,0,0,0.5,508.686,407)"
font-family="Helvetica" font-size="20" font-weight="400" font-style="normal" 
>
<text fill="#212121" fill-opacity="1" stroke="none" xml:space="preserve" x="0" y="0.390625" font-family="Helvetica" font-size="20" font-weight="400" font-style="normal" 
 >2</text>
</g>

<g fill="#212121" fill-opacity="1" stroke="#212121" stroke-opacity="1" stroke-width="1" stroke-linecap="square" stroke-linejoin="bevel" transform="matrix(0.5,0,0,0.5,557.588,407)"
font-family="Helvetica" font-size="20" font-weight="400" font-style="normal" 
>
<text fill="#212121" fill-opacity="1" stroke="none" xml:space="preserve" x="0" y="0.390625" font-family="Helvetica" font-size="20" font-weight="400" font-style="normal" 
 >2.5</text>
</g>

<g fill="#212121" fill-opacity="1" stroke="#212121" stroke-opacity="1" stroke-width="1" stroke-linecap="square" stroke-linejoin="bevel" transform="matrix(0.5,0,0,0.5,614.991,407)"
font-family="Helvetica" font-size="20" font-weight="400" font-style="normal" 
>
<text fill="#212121" fill-opacity="1" stroke="none" xml:space="preserve" x="0" y="0.390625" font-family="Helvetica" font-size="20" font-weight="400" font-style="normal" 
 >3</text>
</g>

<g fill="#212121" fill-opacity="1" stroke="#212121" stroke-opacity="1" stroke-width="1" stroke-linecap="square" stroke-linejoin="bevel" transform="matrix(0,-0.5,0.5,0,26.5,243)"
font-family="Helvetica" font-size="20" font-weight="400" font-style="normal" 
>
<text fill="#212121" fill-opacity="1" stroke="none" xml:space="preserve" x="0" y="0.390625" font-family="Helvetica" font-size="20" font-weight="400" font-style="normal" 
 >Y Values</text>
</g>

<g fill="#212121" fill-opacity="1" stroke="#212121" stroke-opacity="1" stroke-width="1" stroke-linecap="square" stroke-linejoin="round" transform="matrix(0.5,0,0,0.5,0,0)"
font-family="Helvetica" font-size="20" font-weight="400" font-style="normal" 
>
<polyline fill="none" vector-effect="none" points="107,791 107,103 " />
<polyline fill="none" vector-effect="none" points="107,719.52 118.85,719.52 " />
<polyline fill="none" vector-effect="none" points="107,645.386 118.85,645.386 " />
<polyline fill="none" vector-effect="none" points="107,571.251 118.85,571.251 " />
<polyline fill="none" vector-effect="none" points="107,497.117 118.85,497.117 " />
<polyline fill="none" vector-effect="none" points="107,422.983 118.85,422.983 " />
<polyline fill="none" vector-effect="none" points="107,348.849 118.85,348.849 " />
<polyline fill="none" vector-effect="none" points="107,274.715 118.85,274.715 " />
<polyline fill="none" vector-effect="none" points="107,200.581 118.85,200.581 " />
<polyline fill="none" vector-effect="none" points="107,126.447 118.85,126.447 " />
</g>

<g fill="#212121" fill-opacity="1" stroke="#212121" stroke-opacity="1" stroke-width="1" stroke-linecap="square" stroke-linejoin="bevel" transform="matrix(0.5,0,0,0.5,32.5,362.26)"
font-family="Helvetica" font-size="20" font-weight="400" font-style="normal" 
>
<text fill="#212121" fill-opacity="1" stroke="none" xml:space="preserve" x="0" y="0.390625" font-family="Helvetica" font-size="20" font-weight="400" font-style="normal" 
 >-2.5</text>
</g>

<g fill="#212121" fill-opacity="1" stroke="#212121" stroke-opacity="1" stroke-width="1" stroke-linecap="square" stroke-linejoin="bevel" transform="matrix(0.5,0,0,0.5,40.5,325.193)"
font-family="Helvetica" font-size="20" font-weight="400" font-style="normal" 
>
<text fill="#212121" fill-opacity="1" stroke="none" xml:space="preserve" x="0" y="0.390625" font-family="Helvetica" font-size="20" font-weight="400" font-style="normal" 
 >-2</text>
</g>

<g fill="#212121" fill-opacity="1" stroke="#212121" stroke-opacity="1" stroke-width="1" stroke-linecap="square" stroke-linejoin="bevel" transform="matrix(0.5,0,0,0.5,32.5,288.126)"
font-family="Helvetica" font-size="20" font-weight="400" font-style="normal" 
>
<text fill="#212121" fill-opacity="1" stroke="none" xml:space="preserve" x="0" y="0.390625" font-family="Helvetica" font-size="20" font-weight="400" font-style="normal" 
 >-1.5</text>
</g>

<g fill="#212121" fill-opacity="1" stroke="#212121" stroke-opacity="1" stroke-width="1" stroke-linecap="square" stroke-linejoin="bevel" transform="matrix(0.5,0,0,0.5,40.5,251.059)"
font-family="Helvetica" font-size="20" font-weight="400" font-style="normal" 
>
<text fill="#212121" fill-opacity="1" stroke="none" xml:space="preserve" x="0" y="0.390625" font-family="Helvetica" font-size="20" font-weight="400" font-style="normal" 
 >-1</text>
</g>

<g fill="#212121" fill-opacity="1" stroke="#212121" stroke-opacity="1" stroke-width="1" stroke-linecap="square" stroke-linejoin="bevel" transform="matrix(0.5,0,0,0.5,32.5,213.992)"
font-family="Helvetica" font-size="20" font-weight="400" font-style="normal" 
>
<text fill="#212121" fill-opacity="1" stroke="none" xml:space="preserve" x="0" y="0.390625" font-family="Helvetica" font-size="20" font-weight="400" font-style="normal" 
 >-0.5</text>
</g>

<g fill="#212121" fill-opacity="1" stroke="#212121" stroke-opacity="1" stroke-width="1" stroke-linecap="square" stroke-linejoin="bevel" transform="matrix(0.5,0,0,0.5,44,176.925)"
font-family="Helvetica" font-size="20" font-weight="400" font-style="normal" 
>
<text fill="#212121" fill-opacity="1" stroke="none" xml:space="preserve" x="0" y="0.390625" font-family="Helvetica" font-size="20" font-weight="400" font-style="normal" 
 >0</text>
</g>

<g fill="#212121" fill-opacity="1" stroke="#212121" stroke-opacity="1" stroke-width="1" stroke-linecap="square" stroke-linejoin="bevel" transform="matrix(0.5,0,0,0.5,35.5,139.857)"
font-family="Helvetica" font-size="20" font-weight="400" font-style="normal" 
>
<text fill="#212121" fill-opacity="1" stroke="none" xml:space="preserve" x="0" y="0.390625" font-family="Helvetica" font-size="20" font-weight="400" font-style="normal" 
 >0.5</text>
</g>

<g fill="#212121" fill-opacity="1" stroke="#212121" stroke-opacity="1" stroke-width="1" stroke-linecap="square" stroke-linejoin="bevel" transform="matrix(0.5,0,0,0.5,44,102.79)"
font-family="Helvetica" font-size="20" font-weight="400" font-style="normal" 
>
<text fill="#212121" fill-opacity="1" stroke="none" xml:space="preserve" x="0" y="0.390625" font-family="Helvetica" font-size="20" font-weight="400" font-style="normal" 
 >1</text>
</g>

<g fill="#212121" fill-opacity="1" stroke="#212121" stroke-opacity="1" stroke-width="1" stroke-linecap="square" stroke-linejoin="bevel" transform="matrix(0.5,0,0,0.5,35.5,65.7233)"
font-family="Helvetica" font-size="20" font-weight="400" font-style="normal" 
>
<text fill="#212121" fill-opacity="1" stroke="none" xml:space="preserve" x="0" y="0.390625" font-family="Helvetica" font-size="20" font-weight="400" font-style="normal" 
 >1.5</text>
</g>

<g fill="#ff5e69" fill-opacity="1" stroke="none" transform="matrix(0.5,0,0,0.5,0,0)"
font-family="Helvetica" font-size="20" font-weight="400" font-style="normal" 
>
<circle cx="361.323" cy="389.628" r="5"/>
<circle cx="1113.54" cy="212.728" r="5"/>
<circle cx="414.668" cy="350.142" r="5"/>
<circle cx="669.994" cy="566.722" r="5"/>
<circle cx="540.083" cy="453.656" r="5"/>
<circle cx="558.458" cy="536.781" r="5"/>
<circle cx="441.683" cy="505.693" r="5"/>
<circle cx="667.975" cy="338.396" r="5"/>
<circle cx="466.549" cy="161.77" r="5"/>
<circle cx="574.343" cy="407.252" r="5"/>
<circle cx="419.147" cy="311.467" r="5"/>
<circle cx="916.745" cy="222.501" r="5"/>
<circle cx="673.958" cy="547.306" r="5"/>
<circle cx="796.237" cy="540.134" r="5"/>
<circle cx="222.772" cy="357.993" r="5"/>
<circle cx="622.722" cy="529.526" r="5"/>
<circle cx="632.359" cy="322.208" r="5"/>
<circle cx="758.418" cy="660.219" r="5"/>
<circle cx="535.101" cy="416.984" r="5"/>
<circle cx="708.503" cy="312.497" r="5"/>
</g>

<g fill="#07b64b" fill-opacity="1" stroke="none" transform="matrix(0.5,0,0,0.5,0,0)"
font-family="Helvetica" font-size="20" font-weight="400" font-style="normal" 
>
<circle cx="530.203" cy="223.541" r="5"/>
<circle cx="523.007" cy="425.838" r="5"/>
<circle cx="641.639" cy="314.25" r="5"/>
<circle cx="491.748" cy="169.975" r="5"/>
<circle cx="691.129" cy="168.5" r="5"/>
<circle cx="683.121" cy="256.767" r="5"/>
<circle cx="540.593" cy="326.38" r="5"/>
<circle cx="311.076" cy="635.456" r="5"/>
<circle cx="449.129" cy="175.769" r="5"/>
<circle cx="575.814" cy="499.702" r="5"/>
<circle cx="244.602" cy="463.235" r="5"/>
<circle cx="521.327" cy="251.418" r="5"/>
<circle cx="595.071" cy="252.145" r="5"/>
<circle cx="355.634" cy="676.253" r="5"/>
<circle cx="528.908" cy="174.218" r="5"/>
<circle cx="278.087" cy="412.883" r="5"/>
<circle cx="424.445" cy="175.923" r="5"/>
<circle cx="1062.09" cy="165.694" r="5"/>
<circle cx="490.325" cy="660.683" r="5"/>
<circle cx="160.864" cy="298.648" r="5"/>
</g>

<g fill="#00a9ff" fill-opacity="1" stroke="none" transform="matrix(0.5,0,0,0.5,0,0)"
font-family="Helvetica" font-size="20" font-weight="400" font-style="normal" 
>
<circle cx="775.79" cy="759.727" r="5"/>
<circle cx="891.471" cy="540.562" r="5"/>
<circle cx="553.536" cy="411.744" r="5"/>
<circle cx="295.449" cy="319.589" r="5"/>
<circle cx="490.041" cy="294.409" r="5"/>
<circle cx="712.297" cy="615.058" r="5"/>
<circle cx="782.75" cy="287.872" r="5"/>
<circle cx="926.745" cy="227.459" r="5"/>
<circle cx="294.981" cy="433.411" r="5"/>
<circle cx="529.039" cy="311.751" r="5"/>
<circle cx="1238.14" cy="212.51" r="5"/>
<circle cx="573.227" cy="460.564" r="5"/>
<circle cx="476.388" cy="134.273" r="5"/>
<circle cx="1013.78" cy="135.92" r="5"/>
<circle cx="783.174" cy="202.729" r="5"/>
<circle cx="793.643" cy="472.644" r="5"/>
<circle cx="683.485" cy="340.548" r="5"/>
<circle cx="577.713" cy="348.453" r="5"/>
<circle cx="187.953" cy="293.408" r="5"/>
<circle cx="540.282" cy="508.692" r="5"/>
</g>

<g fill="#212121" fill-opacity="1" stroke="#212121" stroke-opacity="1" stroke-width="1" stroke-linecap="square" stroke-linejoin="bevel" transform="matrix(0.5,0,0,0.5,248.5,29)"
font-family="Helvetica" font-size="28" font-weight="700" font-style="normal" 
>
<text fill="#212121" fill-opacity="1" stroke="none" xml:space="preserve" x="0" y="-0.453125" font-family="Helvetica" font-size="28" font-weight="700" font-style="normal" 
 >Scatter Plot with Color Groups</text>
</g>

<g fill="#212121" fill-opacity="1" stroke="#212121" stroke-opacity="1" stroke-width="1" stroke-linecap="square" stroke-linejoin="bevel" transform="matrix(0.5,0,0,0.5,663.5,190.887)"
font-family="Helvetica" font-size="24" font-weight="700" font-style="normal" 
>
<text fill="#212121" fill-opacity="1" stroke="none" xml:space="preserve" x="0" y="0.46875" font-family="Helvetica" font-size="24" font-weight="700" font-style="normal" 
 >Group</text>
</g>

<g fill="#ff5e69" fill-opacity="1" stroke="#ff5e69" stroke-opacity="1" stroke-width="6" stroke-linecap="butt" stroke-linejoin="round" transform="matrix(0.5,0,0,0.5,0,0)"
font-family="Helvetica" font-size="24" font-weight="700" font-style="normal" 
>
<polyline fill="none" vector-effect="none" points="1327,419.542 1358.43,419.542 " />
</g>

<g fill="#212121" fill-opacity="1" stroke="#212121" stroke-opacity="1" stroke-width="1" stroke-linecap="square" stroke-linejoin="bevel" transform="matrix(0.5,0,0,0.5,687.071,212.271)"
font-family="Helvetica" font-size="20" font-weight="400" font-style="normal" 
>
<text fill="#212121" fill-opacity="1" stroke="none" xml:space="preserve" x="0" y="0.390625" font-family="Helvetica" font-size="20" font-weight="400" font-style="normal" 
 >4</text>
</g>

<g fill="#07b64b" fill-opacity="1" stroke="#07b64b" stroke-opacity="1" stroke-width="6" stroke-linecap="butt" stroke-linejoin="round" transform="matrix(0.5,0,0,0.5,0,0)"
font-family="Helvetica" font-size="20" font-weight="400" font-style="normal" 
>
<polyline fill="none" vector-effect="none" points="1327,463.31 1358.43,463.31 " />
</g>

<g fill="#212121" fill-opacity="1" stroke="#212121" stroke-opacity="1" stroke-width="1" stroke-linecap="square" stroke-linejoin="bevel" transform="matrix(0.5,0,0,0.5,687.071,234.155)"
font-family="Helvetica" font-size="20" font-weight="400" font-style="normal" 
>
<text fill="#212121" fill-opacity="1" stroke="none" xml:space="preserve" x="0" y="0.390625" font-family="Helvetica" font-size="20" font-weight="400" font-style="normal" 
 >6</text>
</g>

<g fill="#00a9ff" fill-opacity="1" stroke="#00a9ff" stroke-opacity="1" stroke-width="6" stroke-linecap="butt" stroke-linejoin="round" transform="matrix(0.5,0,0,0.5,0,0)"
font-family="Helvetica" font-size="20" font-weight="400" font-style="normal" 
>
<polyline fill="none" vector-effect="none" points="1327,507.079 1358.43,507.079 " />
</g>

<g fill="#212121" fill-opacity="1" stroke="#212121" stroke-opacity="1" stroke-width="1" stroke-linecap="square" stroke-linejoin="bevel" transform="matrix(0.5,0,0,0.5,687.071,256.039)"
font-family="Helvetica" font-size="20" font-weight="400" font-style="normal" 
>
<text fill="#212121" fill-opacity="1" stroke="none" xml:space="preserve" x="0" y="0.390625" font-family="Helvetica" font-size="20" font-weight="400" font-style="normal" 
 >8</text>
</g>
</g>
</svg>
