<?xml version="1.0" encoding="UTF-8" standalone="no"?>
<svg width="258.586mm" height="155.575mm"
 viewBox="0 0 733 441"
 xmlns="http://www.w3.org/2000/svg" xmlns:xlink="http://www.w3.org/1999/xlink"  version="1.2" baseProfile="tiny">
<title>Qt SVG Document</title>
<desc>MATLAB, The MathWorks, Inc. Version 25.1.0.2973910 R2025a Update 1</desc>
<defs>
</defs>
<g fill="none" stroke="black" stroke-width="1" fill-rule="evenodd" stroke-linecap="square" stroke-linejoin="bevel" >

<g fill="#ffffff" fill-opacity="1" stroke="none" transform="matrix(0.5,0,0,0.5,0,0)"
font-family=".AppleSystemUIFont" font-size="13" font-weight="400" font-style="normal" 
>
<path vector-effect="none" fill-rule="evenodd" d="M0,0 L1467,0 L1467,883 L0,883 L0,0"/>
</g>

<g fill="#ffffff" fill-opacity="1" stroke="none" transform="matrix(5e-05,0,0,5e-05,0,0)"
font-family=".AppleSystemUIFont" font-size="13" font-weight="400" font-style="normal" 
>
<path vector-effect="none" fill-rule="evenodd" d="M1.07e+06,1.03e+06 L1.07e+06,7.91e+06 L1.189e+07,7.91e+06 L1.189e+07,1.03e+06 L1.07e+06,1.03e+06"/>
</g>

<g fill="#212121" fill-opacity="1" stroke="#212121" stroke-opacity="1" stroke-width="1" stroke-linecap="square" stroke-linejoin="bevel" transform="matrix(0.5,0,0,0.5,304.25,419.5)"
font-family="Helvetica" font-size="20" font-weight="400" font-style="normal" 
>
<text fill="#212121" fill-opacity="1" stroke="none" xml:space="preserve" x="0" y="0.390625" font-family="Helvetica" font-size="20" font-weight="400" font-style="normal" 
 >X Values</text>
</g>

<g fill="#212121" fill-opacity="1" stroke="#212121" stroke-opacity="1" stroke-width="1" stroke-linecap="square" stroke-linejoin="round" transform="matrix(0.5,0,0,0.5,0,0)"
font-family="Helvetica" font-size="20" font-weight="400" font-style="normal" 
>
<polyline fill="none" vector-effect="none" points="107,791 1189,791 " />
<polyline fill="none" vector-effect="none" points="129.126,791 129.126,780.18 " />
<polyline fill="none" vector-effect="none" points="227.191,791 227.191,780.18 " />
<polyline fill="none" vector-effect="none" points="325.255,791 325.255,780.18 " />
<polyline fill="none" vector-effect="none" points="423.32,791 423.32,780.18 " />
<polyline fill="none" vector-effect="none" points="521.384,791 521.384,780.18 " />
<polyline fill="none" vector-effect="none" points="619.448,791 619.448,780.18 " />
<polyline fill="none" vector-effect="none" points="717.513,791 717.513,780.18 " />
<polyline fill="none" vector-effect="none" points="815.577,791 815.577,780.18 " />
<polyline fill="none" vector-effect="none" points="913.642,791 913.642,780.18 " />
<polyline fill="none" vector-effect="none" points="1011.71,791 1011.71,780.18 " />
<polyline fill="none" vector-effect="none" points="1109.77,791 1109.77,780.18 " />
</g>

<g fill="#212121" fill-opacity="1" stroke="#212121" stroke-opacity="1" stroke-width="1" stroke-linecap="square" stroke-linejoin="bevel" transform="matrix(0.5,0,0,0.5,56.0631,407)"
font-family="Helvetica" font-size="20" font-weight="400" font-style="normal" 
>
<text fill="#212121" fill-opacity="1" stroke="none" xml:space="preserve" x="0" y="0.390625" font-family="Helvetica" font-size="20" font-weight="400" font-style="normal" 
 >-2.5</text>
</g>

<g fill="#212121" fill-opacity="1" stroke="#212121" stroke-opacity="1" stroke-width="1" stroke-linecap="square" stroke-linejoin="bevel" transform="matrix(0.5,0,0,0.5,109.095,407)"
font-family="Helvetica" font-size="20" font-weight="400" font-style="normal" 
>
<text fill="#212121" fill-opacity="1" stroke="none" xml:space="preserve" x="0" y="0.390625" font-family="Helvetica" font-size="20" font-weight="400" font-style="normal" 
 >-2</text>
</g>

<g fill="#212121" fill-opacity="1" stroke="#212121" stroke-opacity="1" stroke-width="1" stroke-linecap="square" stroke-linejoin="bevel" transform="matrix(0.5,0,0,0.5,154.128,407)"
font-family="Helvetica" font-size="20" font-weight="400" font-style="normal" 
>
<text fill="#212121" fill-opacity="1" stroke="none" xml:space="preserve" x="0" y="0.390625" font-family="Helvetica" font-size="20" font-weight="400" font-style="normal" 
 >-1.5</text>
</g>

<g fill="#212121" fill-opacity="1" stroke="#212121" stroke-opacity="1" stroke-width="1" stroke-linecap="square" stroke-linejoin="bevel" transform="matrix(0.5,0,0,0.5,207.16,407)"
font-family="Helvetica" font-size="20" font-weight="400" font-style="normal" 
>
<text fill="#212121" fill-opacity="1" stroke="none" xml:space="preserve" x="0" y="0.390625" font-family="Helvetica" font-size="20" font-weight="400" font-style="normal" 
 >-1</text>
</g>

<g fill="#212121" fill-opacity="1" stroke="#212121" stroke-opacity="1" stroke-width="1" stroke-linecap="square" stroke-linejoin="bevel" transform="matrix(0.5,0,0,0.5,252.192,407)"
font-family="Helvetica" font-size="20" font-weight="400" font-style="normal" 
>
<text fill="#212121" fill-opacity="1" stroke="none" xml:space="preserve" x="0" y="0.390625" font-family="Helvetica" font-size="20" font-weight="400" font-style="normal" 
 >-0.5</text>
</g>

<g fill="#212121" fill-opacity="1" stroke="#212121" stroke-opacity="1" stroke-width="1" stroke-linecap="square" stroke-linejoin="bevel" transform="matrix(0.5,0,0,0.5,306.974,407)"
font-family="Helvetica" font-size="20" font-weight="400" font-style="normal" 
>
<text fill="#212121" fill-opacity="1" stroke="none" xml:space="preserve" x="0" y="0.390625" font-family="Helvetica" font-size="20" font-weight="400" font-style="normal" 
 >0</text>
</g>

<g fill="#212121" fill-opacity="1" stroke="#212121" stroke-opacity="1" stroke-width="1" stroke-linecap="square" stroke-linejoin="bevel" transform="matrix(0.5,0,0,0.5,351.756,407)"
font-family="Helvetica" font-size="20" font-weight="400" font-style="normal" 
>
<text fill="#212121" fill-opacity="1" stroke="none" xml:space="preserve" x="0" y="0.390625" font-family="Helvetica" font-size="20" font-weight="400" font-style="normal" 
 >0.5</text>
</g>

<g fill="#212121" fill-opacity="1" stroke="#212121" stroke-opacity="1" stroke-width="1" stroke-linecap="square" stroke-linejoin="bevel" transform="matrix(0.5,0,0,0.5,405.039,407)"
font-family="Helvetica" font-size="20" font-weight="400" font-style="normal" 
>
<text fill="#212121" fill-opacity="1" stroke="none" xml:space="preserve" x="0" y="0.390625" font-family="Helvetica" font-size="20" font-weight="400" font-style="normal" 
 >1</text>
</g>

<g fill="#212121" fill-opacity="1" stroke="#212121" stroke-opacity="1" stroke-width="1" stroke-linecap="square" stroke-linejoin="bevel" transform="matrix(0.5,0,0,0.5,449.821,407)"
font-family="Helvetica" font-size="20" font-weight="400" font-style="normal" 
>
<text fill="#212121" fill-opacity="1" stroke="none" xml:space="preserve" x="0" y="0.390625" font-family="Helvetica" font-size="20" font-weight="400" font-style="normal" 
 >1.5</text>
</g>

<g fill="#212121" fill-opacity="1" stroke="#212121" stroke-opacity="1" stroke-width="1" stroke-linecap="square" stroke-linejoin="bevel" transform="matrix(0.5,0,0,0.5,503.103,407)"
font-family="Helvetica" font-size="20" font-weight="400" font-style="normal" 
>
<text fill="#212121" fill-opacity="1" stroke="none" xml:space="preserve" x="0" y="0.390625" font-family="Helvetica" font-size="20" font-weight="400" font-style="normal" 
 >2</text>
</g>

<g fill="#212121" fill-opacity="1" stroke="#212121" stroke-opacity="1" stroke-width="1" stroke-linecap="square" stroke-linejoin="bevel" transform="matrix(0.5,0,0,0.5,547.885,407)"
font-family="Helvetica" font-size="20" font-weight="400" font-style="normal" 
>
<text fill="#212121" fill-opacity="1" stroke="none" xml:space="preserve" x="0" y="0.390625" font-family="Helvetica" font-size="20" font-weight="400" font-style="normal" 
 >2.5</text>
</g>

<g fill="#212121" fill-opacity="1" stroke="#212121" stroke-opacity="1" stroke-width="1" stroke-linecap="square" stroke-linejoin="bevel" transform="matrix(0,-0.5,0.5,0,26.5,243)"
font-family="Helvetica" font-size="20" font-weight="400" font-style="normal" 
>
<text fill="#212121" fill-opacity="1" stroke="none" xml:space="preserve" x="0" y="0.390625" font-family="Helvetica" font-size="20" font-weight="400" font-style="normal" 
 >Y Values</text>
</g>

<g fill="#212121" fill-opacity="1" stroke="#212121" stroke-opacity="1" stroke-width="1" stroke-linecap="square" stroke-linejoin="round" transform="matrix(0.5,0,0,0.5,0,0)"
font-family="Helvetica" font-size="20" font-weight="400" font-style="normal" 
>
<polyline fill="none" vector-effect="none" points="107,791 107,103 " />
<polyline fill="none" vector-effect="none" points="107,781.655 117.82,781.655 " />
<polyline fill="none" vector-effect="none" points="107,711.907 117.82,711.907 " />
<polyline fill="none" vector-effect="none" points="107,642.158 117.82,642.158 " />
<polyline fill="none" vector-effect="none" points="107,572.41 117.82,572.41 " />
<polyline fill="none" vector-effect="none" points="107,502.661 117.82,502.661 " />
<polyline fill="none" vector-effect="none" points="107,432.912 117.82,432.912 " />
<polyline fill="none" vector-effect="none" points="107,363.164 117.82,363.164 " />
<polyline fill="none" vector-effect="none" points="107,293.415 117.82,293.415 " />
<polyline fill="none" vector-effect="none" points="107,223.667 117.82,223.667 " />
<polyline fill="none" vector-effect="none" points="107,153.918 117.82,153.918 " />
</g>

<g fill="#212121" fill-opacity="1" stroke="#212121" stroke-opacity="1" stroke-width="1" stroke-linecap="square" stroke-linejoin="bevel" transform="matrix(0.5,0,0,0.5,32.5,393.328)"
font-family="Helvetica" font-size="20" font-weight="400" font-style="normal" 
>
<text fill="#212121" fill-opacity="1" stroke="none" xml:space="preserve" x="0" y="0.390625" font-family="Helvetica" font-size="20" font-weight="400" font-style="normal" 
 >-2.5</text>
</g>

<g fill="#212121" fill-opacity="1" stroke="#212121" stroke-opacity="1" stroke-width="1" stroke-linecap="square" stroke-linejoin="bevel" transform="matrix(0.5,0,0,0.5,40.5,358.453)"
font-family="Helvetica" font-size="20" font-weight="400" font-style="normal" 
>
<text fill="#212121" fill-opacity="1" stroke="none" xml:space="preserve" x="0" y="0.390625" font-family="Helvetica" font-size="20" font-weight="400" font-style="normal" 
 >-2</text>
</g>

<g fill="#212121" fill-opacity="1" stroke="#212121" stroke-opacity="1" stroke-width="1" stroke-linecap="square" stroke-linejoin="bevel" transform="matrix(0.5,0,0,0.5,32.5,323.579)"
font-family="Helvetica" font-size="20" font-weight="400" font-style="normal" 
>
<text fill="#212121" fill-opacity="1" stroke="none" xml:space="preserve" x="0" y="0.390625" font-family="Helvetica" font-size="20" font-weight="400" font-style="normal" 
 >-1.5</text>
</g>

<g fill="#212121" fill-opacity="1" stroke="#212121" stroke-opacity="1" stroke-width="1" stroke-linecap="square" stroke-linejoin="bevel" transform="matrix(0.5,0,0,0.5,40.5,288.705)"
font-family="Helvetica" font-size="20" font-weight="400" font-style="normal" 
>
<text fill="#212121" fill-opacity="1" stroke="none" xml:space="preserve" x="0" y="0.390625" font-family="Helvetica" font-size="20" font-weight="400" font-style="normal" 
 >-1</text>
</g>

<g fill="#212121" fill-opacity="1" stroke="#212121" stroke-opacity="1" stroke-width="1" stroke-linecap="square" stroke-linejoin="bevel" transform="matrix(0.5,0,0,0.5,32.5,253.831)"
font-family="Helvetica" font-size="20" font-weight="400" font-style="normal" 
>
<text fill="#212121" fill-opacity="1" stroke="none" xml:space="preserve" x="0" y="0.390625" font-family="Helvetica" font-size="20" font-weight="400" font-style="normal" 
 >-0.5</text>
</g>

<g fill="#212121" fill-opacity="1" stroke="#212121" stroke-opacity="1" stroke-width="1" stroke-linecap="square" stroke-linejoin="bevel" transform="matrix(0.5,0,0,0.5,44,218.956)"
font-family="Helvetica" font-size="20" font-weight="400" font-style="normal" 
>
<text fill="#212121" fill-opacity="1" stroke="none" xml:space="preserve" x="0" y="0.390625" font-family="Helvetica" font-size="20" font-weight="400" font-style="normal" 
 >0</text>
</g>

<g fill="#212121" fill-opacity="1" stroke="#212121" stroke-opacity="1" stroke-width="1" stroke-linecap="square" stroke-linejoin="bevel" transform="matrix(0.5,0,0,0.5,35.5,184.082)"
font-family="Helvetica" font-size="20" font-weight="400" font-style="normal" 
>
<text fill="#212121" fill-opacity="1" stroke="none" xml:space="preserve" x="0" y="0.390625" font-family="Helvetica" font-size="20" font-weight="400" font-style="normal" 
 >0.5</text>
</g>

<g fill="#212121" fill-opacity="1" stroke="#212121" stroke-opacity="1" stroke-width="1" stroke-linecap="square" stroke-linejoin="bevel" transform="matrix(0.5,0,0,0.5,44,149.208)"
font-family="Helvetica" font-size="20" font-weight="400" font-style="normal" 
>
<text fill="#212121" fill-opacity="1" stroke="none" xml:space="preserve" x="0" y="0.390625" font-family="Helvetica" font-size="20" font-weight="400" font-style="normal" 
 >1</text>
</g>

<g fill="#212121" fill-opacity="1" stroke="#212121" stroke-opacity="1" stroke-width="1" stroke-linecap="square" stroke-linejoin="bevel" transform="matrix(0.5,0,0,0.5,35.5,114.333)"
font-family="Helvetica" font-size="20" font-weight="400" font-style="normal" 
>
<text fill="#212121" fill-opacity="1" stroke="none" xml:space="preserve" x="0" y="0.390625" font-family="Helvetica" font-size="20" font-weight="400" font-style="normal" 
 >1.5</text>
</g>

<g fill="#212121" fill-opacity="1" stroke="#212121" stroke-opacity="1" stroke-width="1" stroke-linecap="square" stroke-linejoin="bevel" transform="matrix(0.5,0,0,0.5,44,79.459)"
font-family="Helvetica" font-size="20" font-weight="400" font-style="normal" 
>
<text fill="#212121" fill-opacity="1" stroke="none" xml:space="preserve" x="0" y="0.390625" font-family="Helvetica" font-size="20" font-weight="400" font-style="normal" 
 >2</text>
</g>

<g fill="#ff5e69" fill-opacity="1" stroke="none" transform="matrix(0.5,0,0,0.5,0,0)"
font-family="Helvetica" font-size="20" font-weight="400" font-style="normal" 
>
<circle cx="695.473" cy="301.005" r="5"/>
<circle cx="536.654" cy="663.742" r="5"/>
<circle cx="522.844" cy="419.763" r="5"/>
<circle cx="635.867" cy="518.548" r="5"/>
<circle cx="647.058" cy="397.908" r="5"/>
<circle cx="802.22" cy="694.953" r="5"/>
<circle cx="777.911" cy="211.86" r="5"/>
<circle cx="943.435" cy="419.061" r="5"/>
<circle cx="823.063" cy="329.883" r="5"/>
<circle cx="585.315" cy="674.193" r="5"/>
<circle cx="501.317" cy="263.031" r="5"/>
<circle cx="611.085" cy="297.063" r="5"/>
<circle cx="912.581" cy="631.624" r="5"/>
<circle cx="606.623" cy="189.898" r="5"/>
<circle cx="746.223" cy="499.587" r="5"/>
<circle cx="619.781" cy="449.494" r="5"/>
<circle cx="679.649" cy="543.768" r="5"/>
<circle cx="590.037" cy="449.039" r="5"/>
<circle cx="542.59" cy="275.341" r="5"/>
<circle cx="706.692" cy="740.192" r="5"/>
</g>

<g fill="#86ab00" fill-opacity="1" stroke="none" transform="matrix(0.5,0,0,0.5,0,0)"
font-family="Helvetica" font-size="20" font-weight="400" font-style="normal" 
>
<circle cx="429.926" cy="373.115" r="5"/>
<circle cx="291.124" cy="277.977" r="5"/>
<circle cx="687.468" cy="438.244" r="5"/>
<circle cx="692.922" cy="351.025" r="5"/>
<circle cx="928.908" cy="487.7" r="5"/>
<circle cx="549.256" cy="492.06" r="5"/>
<circle cx="304.988" cy="556.829" r="5"/>
<circle cx="665.553" cy="232.737" r="5"/>
<circle cx="684.266" cy="588.363" r="5"/>
<circle cx="623.212" cy="731.168" r="5"/>
<circle cx="790.061" cy="641.468" r="5"/>
<circle cx="795.088" cy="215.194" r="5"/>
<circle cx="409.107" cy="427.374" r="5"/>
<circle cx="555.346" cy="712.115" r="5"/>
<circle cx="346.986" cy="556.94" r="5"/>
<circle cx="693.915" cy="374.708" r="5"/>
<circle cx="652.292" cy="336.868" r="5"/>
<circle cx="782.67" cy="618.691" r="5"/>
<circle cx="486.726" cy="509.514" r="5"/>
<circle cx="843.212" cy="258.391" r="5"/>
</g>

<g fill="#00bcd5" fill-opacity="1" stroke="none" transform="matrix(0.5,0,0,0.5,0,0)"
font-family="Helvetica" font-size="20" font-weight="400" font-style="normal" 
>
<circle cx="915.444" cy="617.691" r="5"/>
<circle cx="484.584" cy="726.953" r="5"/>
<circle cx="782.109" cy="170.249" r="5"/>
<circle cx="1139.82" cy="601.245" r="5"/>
<circle cx="637.011" cy="519.686" r="5"/>
<circle cx="659.086" cy="324.489" r="5"/>
<circle cx="156.182" cy="134.273" r="5"/>
<circle cx="589.685" cy="260.856" r="5"/>
<circle cx="712.768" cy="670.876" r="5"/>
<circle cx="450.772" cy="441.289" r="5"/>
<circle cx="507.496" cy="427.712" r="5"/>
<circle cx="1067.57" cy="211.635" r="5"/>
<circle cx="977.059" cy="625.406" r="5"/>
<circle cx="394.067" cy="316.363" r="5"/>
<circle cx="356.502" cy="256.668" r="5"/>
<circle cx="442.671" cy="291.571" r="5"/>
<circle cx="970.142" cy="211.716" r="5"/>
<circle cx="805.397" cy="759.727" r="5"/>
<circle cx="616.306" cy="393.333" r="5"/>
<circle cx="707.252" cy="150.472" r="5"/>
</g>

<g fill="#8491ff" fill-opacity="1" stroke="none" transform="matrix(0.5,0,0,0.5,0,0)"
font-family="Helvetica" font-size="20" font-weight="400" font-style="normal" 
>
<circle cx="600.723" cy="388.909" r="5"/>
<circle cx="698.651" cy="417.593" r="5"/>
<circle cx="417.988" cy="509.613" r="5"/>
<circle cx="649.973" cy="425.176" r="5"/>
<circle cx="684.703" cy="356.84" r="5"/>
<circle cx="487.457" cy="598.981" r="5"/>
<circle cx="791.307" cy="532.503" r="5"/>
<circle cx="481.825" cy="529.469" r="5"/>
<circle cx="588.874" cy="538.602" r="5"/>
<circle cx="209.441" cy="340.682" r="5"/>
<circle cx="614.947" cy="239.612" r="5"/>
<circle cx="875.334" cy="320.914" r="5"/>
<circle cx="632.555" cy="313.461" r="5"/>
<circle cx="382.441" cy="260.903" r="5"/>
<circle cx="362.904" cy="480.735" r="5"/>
<circle cx="840.853" cy="379.457" r="5"/>
<circle cx="580.851" cy="554.208" r="5"/>
<circle cx="497.048" cy="258.516" r="5"/>
<circle cx="232.341" cy="562.165" r="5"/>
<circle cx="720.489" cy="403.23" r="5"/>
</g>

<g fill="#212121" fill-opacity="1" stroke="#212121" stroke-opacity="1" stroke-width="1" stroke-linecap="square" stroke-linejoin="bevel" transform="matrix(0.5,0,0,0.5,171.25,29)"
font-family="Helvetica" font-size="28" font-weight="700" font-style="normal" 
>
<text fill="#212121" fill-opacity="1" stroke="none" xml:space="preserve" x="0" y="-0.453125" font-family="Helvetica" font-size="28" font-weight="700" font-style="normal" 
 >Interactive Scatter Plot - Click Legend to Filter</text>
</g>

<g fill="#212121" fill-opacity="1" stroke="#212121" stroke-opacity="1" stroke-width="1" stroke-linecap="square" stroke-linejoin="bevel" transform="matrix(0.5,0,0,0.5,612,181.239)"
font-family="Helvetica" font-size="24" font-weight="700" font-style="normal" 
>
<text fill="#212121" fill-opacity="1" stroke="none" xml:space="preserve" x="0" y="0.46875" font-family="Helvetica" font-size="24" font-weight="700" font-style="normal" 
 >Groups</text>
</g>

<g fill="#ff5e69" fill-opacity="1" stroke="#ff5e69" stroke-opacity="1" stroke-width="6" stroke-linecap="butt" stroke-linejoin="round" transform="matrix(0.5,0,0,0.5,0,0)"
font-family="Helvetica" font-size="24" font-weight="700" font-style="normal" 
>
<polyline fill="none" vector-effect="none" points="1224,398.984 1255.43,398.984 " />
</g>

<g fill="#212121" fill-opacity="1" stroke="#212121" stroke-opacity="1" stroke-width="1" stroke-linecap="square" stroke-linejoin="bevel" transform="matrix(0.5,0,0,0.5,635.571,201.992)"
font-family="Helvetica" font-size="20" font-weight="400" font-style="normal" 
>
<text fill="#212121" fill-opacity="1" stroke="none" xml:space="preserve" x="0" y="0.390625" font-family="Helvetica" font-size="20" font-weight="400" font-style="normal" 
 >Blue Group</text>
</g>

<g fill="#86ab00" fill-opacity="1" stroke="#86ab00" stroke-opacity="1" stroke-width="6" stroke-linecap="butt" stroke-linejoin="round" transform="matrix(0.5,0,0,0.5,0,0)"
font-family="Helvetica" font-size="20" font-weight="400" font-style="normal" 
>
<polyline fill="none" vector-effect="none" points="1224,441.489 1255.43,441.489 " />
</g>

<g fill="#212121" fill-opacity="1" stroke="#212121" stroke-opacity="1" stroke-width="1" stroke-linecap="square" stroke-linejoin="bevel" transform="matrix(0.5,0,0,0.5,635.571,223.245)"
font-family="Helvetica" font-size="20" font-weight="400" font-style="normal" 
>
<text fill="#212121" fill-opacity="1" stroke="none" xml:space="preserve" x="0" y="0.390625" font-family="Helvetica" font-size="20" font-weight="400" font-style="normal" 
 >Green Group</text>
</g>

<g fill="#00bcd5" fill-opacity="1" stroke="#00bcd5" stroke-opacity="1" stroke-width="6" stroke-linecap="butt" stroke-linejoin="round" transform="matrix(0.5,0,0,0.5,0,0)"
font-family="Helvetica" font-size="20" font-weight="400" font-style="normal" 
>
<polyline fill="none" vector-effect="none" points="1224,483.994 1255.43,483.994 " />
</g>

<g fill="#212121" fill-opacity="1" stroke="#212121" stroke-opacity="1" stroke-width="1" stroke-linecap="square" stroke-linejoin="bevel" transform="matrix(0.5,0,0,0.5,635.571,244.497)"
font-family="Helvetica" font-size="20" font-weight="400" font-style="normal" 
>
<text fill="#212121" fill-opacity="1" stroke="none" xml:space="preserve" x="0" y="0.390625" font-family="Helvetica" font-size="20" font-weight="400" font-style="normal" 
 >Orange Group</text>
</g>

<g fill="#8491ff" fill-opacity="1" stroke="#8491ff" stroke-opacity="1" stroke-width="6" stroke-linecap="butt" stroke-linejoin="round" transform="matrix(0.5,0,0,0.5,0,0)"
font-family="Helvetica" font-size="20" font-weight="400" font-style="normal" 
>
<polyline fill="none" vector-effect="none" points="1224,526.5 1255.43,526.5 " />
</g>

<g fill="#212121" fill-opacity="1" stroke="#212121" stroke-opacity="1" stroke-width="1" stroke-linecap="square" stroke-linejoin="bevel" transform="matrix(0.5,0,0,0.5,635.571,265.75)"
font-family="Helvetica" font-size="20" font-weight="400" font-style="normal" 
>
<text fill="#212121" fill-opacity="1" stroke="none" xml:space="preserve" x="0" y="0.390625" font-family="Helvetica" font-size="20" font-weight="400" font-style="normal" 
 >Red Group</text>
</g>
</g>
</svg>
